<svg xmlns="http://www.w3.org/2000/svg" viewBox="0 0 48 48" id="male-teacher">
  <g>
    <path d="M22 19c-1.84 0-3.49.11-5.62-1.15C14.44 19.27 12.65 19 10 19c0 1.87.07 3.75 2 5.46a6 6 0 0 0 8 0C22 22.69 22 20.73 22 19zM16.66 28a7.27 7.27 0 0 1-1.32 0l.66.83zM22.08 27.94L20 27l-4 5 4.16 2.77C22 27.87 21.81 28.31 22.08 27.94zM9.92 27.94c.27.38.15.1 1.92 6.83L16 32l-4-5zM16 34.4l-3.62 2.41C15.19 47.47 15 46.65 15 47h2c0-.38-.14.31 2.62-10.19zM25 36l2-2-3.28-4.93C21.44 37.72 22.53 33.57 19 47h5l3-3z"></path>
    <path d="M27.48 30.4l-.68-.31 1.87 2.8a2 2 0 0 1-.26 2.52l-1.2 1.2c2.25 9 2.6 7.4-.39 10.39H31V35.86A6 6 0 0 0 27.48 30.4zM8.28 29.07L5 34l2 2L5 44l3 3h5C9.43 33.43 10.56 37.72 8.28 29.07z"></path>
    <path d="M4.79 36.61l-1.2-1.2a2 2 0 0 1-.26-2.52l1.87-2.8-.68.31A6 6 0 0 0 1 35.86V47H5.18C2.17 44 2.57 45.46 4.79 36.61zM21.53 7.47A4.82 4.82 0 0 1 22.7 9.3 5 5 0 0 1 26 14c0 1.35.1 3.25-2 4.46A17.89 17.89 0 0 1 23.93 21H34V15H44v6h2V1H12V6C17.86 6 19.65 5.57 21.53 7.47z"></path>
    <path d="M16.2 15.2c2 2 4 1.8 5.8 1.8a2 2 0 0 0 2-2V14a3 3 0 0 0-3-3 3 3 0 0 0-.88-2.12C19 7.72 18.2 8 12 8a4 4 0 0 0-4 4v5h4.84A4.05 4.05 0 0 0 16.2 15.2zM23.41 23A7.78 7.78 0 0 1 22 25.28V27H47V23z"></path>
    <rect width="6" height="4" x="36" y="17"></rect>
  </g>
</svg>
